<?xml version="1.0" encoding="utf-8" standalone="no"?>
<!DOCTYPE svg PUBLIC "-//W3C//DTD SVG 1.1//EN"
  "http://www.w3.org/Graphics/SVG/1.1/DTD/svg11.dtd">
<svg xmlns:xlink="http://www.w3.org/1999/xlink" width="1080pt" height="432pt" viewBox="0 0 1080 432" xmlns="http://www.w3.org/2000/svg" version="1.1">
 <metadata>
  <rdf:RDF xmlns:dc="http://purl.org/dc/elements/1.1/" xmlns:cc="http://creativecommons.org/ns#" xmlns:rdf="http://www.w3.org/1999/02/22-rdf-syntax-ns#">
   <cc:Work>
    <dc:type rdf:resource="http://purl.org/dc/dcmitype/StillImage"/>
    <dc:date>2022-04-01T18:02:02.282112</dc:date>
    <dc:format>image/svg+xml</dc:format>
    <dc:creator>
     <cc:Agent>
      <dc:title>Matplotlib v3.5.0, https://matplotlib.org/</dc:title>
     </cc:Agent>
    </dc:creator>
   </cc:Work>
  </rdf:RDF>
 </metadata>
 <defs>
  <style type="text/css">*{stroke-linejoin: round; stroke-linecap: butt}</style>
 </defs>
 <g id="figure_1">
  <g id="patch_1">
   <path d="M 0 432 
L 1080 432 
L 1080 0 
L 0 0 
z
" style="fill: #ffffff"/>
  </g>
  <g id="axes_1">
   <g id="patch_2">
    <path d="M 135 345.6 
L 972 345.6 
L 972 51.84 
L 135 51.84 
z
" style="fill: #ffffff"/>
   </g>
   <g id="matplotlib.axis_1">
    <g id="xtick_1">
     <g id="line2d_1">
      <defs>
       <path id="md70893b69f" d="M 0 0 
L 0 3.5 
" style="stroke: #000000; stroke-width: 0.8"/>
      </defs>
      <g>
       <use xlink:href="#md70893b69f" x="244.954584" y="345.6" style="stroke: #000000; stroke-width: 0.8"/>
      </g>
     </g>
     <g id="text_1">
      <!-- 2021-01-01 -->
      <g transform="translate(193.585133 388.238252)rotate(-30)scale(0.1 -0.1)">
       <defs>
        <path id="DejaVuSans-32" d="M 1228 531 
L 3431 531 
L 3431 0 
L 469 0 
L 469 531 
Q 828 903 1448 1529 
Q 2069 2156 2228 2338 
Q 2531 2678 2651 2914 
Q 2772 3150 2772 3378 
Q 2772 3750 2511 3984 
Q 2250 4219 1831 4219 
Q 1534 4219 1204 4116 
Q 875 4013 500 3803 
L 500 4441 
Q 881 4594 1212 4672 
Q 1544 4750 1819 4750 
Q 2544 4750 2975 4387 
Q 3406 4025 3406 3419 
Q 3406 3131 3298 2873 
Q 3191 2616 2906 2266 
Q 2828 2175 2409 1742 
Q 1991 1309 1228 531 
z
" transform="scale(0.015625)"/>
        <path id="DejaVuSans-30" d="M 2034 4250 
Q 1547 4250 1301 3770 
Q 1056 3291 1056 2328 
Q 1056 1369 1301 889 
Q 1547 409 2034 409 
Q 2525 409 2770 889 
Q 3016 1369 3016 2328 
Q 3016 3291 2770 3770 
Q 2525 4250 2034 4250 
z
M 2034 4750 
Q 2819 4750 3233 4129 
Q 3647 3509 3647 2328 
Q 3647 1150 3233 529 
Q 2819 -91 2034 -91 
Q 1250 -91 836 529 
Q 422 1150 422 2328 
Q 422 3509 836 4129 
Q 1250 4750 2034 4750 
z
" transform="scale(0.015625)"/>
        <path id="DejaVuSans-31" d="M 794 531 
L 1825 531 
L 1825 4091 
L 703 3866 
L 703 4441 
L 1819 4666 
L 2450 4666 
L 2450 531 
L 3481 531 
L 3481 0 
L 794 0 
L 794 531 
z
" transform="scale(0.015625)"/>
        <path id="DejaVuSans-2d" d="M 313 2009 
L 1997 2009 
L 1997 1497 
L 313 1497 
L 313 2009 
z
" transform="scale(0.015625)"/>
       </defs>
       <use xlink:href="#DejaVuSans-32"/>
       <use xlink:href="#DejaVuSans-30" x="63.623047"/>
       <use xlink:href="#DejaVuSans-32" x="127.246094"/>
       <use xlink:href="#DejaVuSans-31" x="190.869141"/>
       <use xlink:href="#DejaVuSans-2d" x="254.492188"/>
       <use xlink:href="#DejaVuSans-30" x="290.576172"/>
       <use xlink:href="#DejaVuSans-31" x="354.199219"/>
       <use xlink:href="#DejaVuSans-2d" x="417.822266"/>
       <use xlink:href="#DejaVuSans-30" x="453.90625"/>
       <use xlink:href="#DejaVuSans-31" x="517.529297"/>
      </g>
     </g>
    </g>
    <g id="xtick_2">
     <g id="line2d_2">
      <g>
       <use xlink:href="#md70893b69f" x="407.281857" y="345.6" style="stroke: #000000; stroke-width: 0.8"/>
      </g>
     </g>
     <g id="text_2">
      <!-- 2021-01-15 -->
      <g transform="translate(355.912406 388.238252)rotate(-30)scale(0.1 -0.1)">
       <defs>
        <path id="DejaVuSans-35" d="M 691 4666 
L 3169 4666 
L 3169 4134 
L 1269 4134 
L 1269 2991 
Q 1406 3038 1543 3061 
Q 1681 3084 1819 3084 
Q 2600 3084 3056 2656 
Q 3513 2228 3513 1497 
Q 3513 744 3044 326 
Q 2575 -91 1722 -91 
Q 1428 -91 1123 -41 
Q 819 9 494 109 
L 494 744 
Q 775 591 1075 516 
Q 1375 441 1709 441 
Q 2250 441 2565 725 
Q 2881 1009 2881 1497 
Q 2881 1984 2565 2268 
Q 2250 2553 1709 2553 
Q 1456 2553 1204 2497 
Q 953 2441 691 2322 
L 691 4666 
z
" transform="scale(0.015625)"/>
       </defs>
       <use xlink:href="#DejaVuSans-32"/>
       <use xlink:href="#DejaVuSans-30" x="63.623047"/>
       <use xlink:href="#DejaVuSans-32" x="127.246094"/>
       <use xlink:href="#DejaVuSans-31" x="190.869141"/>
       <use xlink:href="#DejaVuSans-2d" x="254.492188"/>
       <use xlink:href="#DejaVuSans-30" x="290.576172"/>
       <use xlink:href="#DejaVuSans-31" x="354.199219"/>
       <use xlink:href="#DejaVuSans-2d" x="417.822266"/>
       <use xlink:href="#DejaVuSans-31" x="453.90625"/>
       <use xlink:href="#DejaVuSans-35" x="517.529297"/>
      </g>
     </g>
    </g>
    <g id="xtick_3">
     <g id="line2d_3">
      <g>
       <use xlink:href="#md70893b69f" x="604.393545" y="345.6" style="stroke: #000000; stroke-width: 0.8"/>
      </g>
     </g>
     <g id="text_3">
      <!-- 2021-02-01 -->
      <g transform="translate(553.024094 388.238252)rotate(-30)scale(0.1 -0.1)">
       <use xlink:href="#DejaVuSans-32"/>
       <use xlink:href="#DejaVuSans-30" x="63.623047"/>
       <use xlink:href="#DejaVuSans-32" x="127.246094"/>
       <use xlink:href="#DejaVuSans-31" x="190.869141"/>
       <use xlink:href="#DejaVuSans-2d" x="254.492188"/>
       <use xlink:href="#DejaVuSans-30" x="290.576172"/>
       <use xlink:href="#DejaVuSans-32" x="354.199219"/>
       <use xlink:href="#DejaVuSans-2d" x="417.822266"/>
       <use xlink:href="#DejaVuSans-30" x="453.90625"/>
       <use xlink:href="#DejaVuSans-31" x="517.529297"/>
      </g>
     </g>
    </g>
    <g id="xtick_4">
     <g id="line2d_4">
      <g>
       <use xlink:href="#md70893b69f" x="766.720818" y="345.6" style="stroke: #000000; stroke-width: 0.8"/>
      </g>
     </g>
     <g id="text_4">
      <!-- 2021-02-15 -->
      <g transform="translate(715.351367 388.238252)rotate(-30)scale(0.1 -0.1)">
       <use xlink:href="#DejaVuSans-32"/>
       <use xlink:href="#DejaVuSans-30" x="63.623047"/>
       <use xlink:href="#DejaVuSans-32" x="127.246094"/>
       <use xlink:href="#DejaVuSans-31" x="190.869141"/>
       <use xlink:href="#DejaVuSans-2d" x="254.492188"/>
       <use xlink:href="#DejaVuSans-30" x="290.576172"/>
       <use xlink:href="#DejaVuSans-32" x="354.199219"/>
       <use xlink:href="#DejaVuSans-2d" x="417.822266"/>
       <use xlink:href="#DejaVuSans-31" x="453.90625"/>
       <use xlink:href="#DejaVuSans-35" x="517.529297"/>
      </g>
     </g>
    </g>
    <g id="xtick_5">
     <g id="line2d_5">
      <g>
       <use xlink:href="#md70893b69f" x="929.048091" y="345.6" style="stroke: #000000; stroke-width: 0.8"/>
      </g>
     </g>
     <g id="text_5">
      <!-- 2021-03-01 -->
      <g transform="translate(877.67864 388.238252)rotate(-30)scale(0.1 -0.1)">
       <defs>
        <path id="DejaVuSans-33" d="M 2597 2516 
Q 3050 2419 3304 2112 
Q 3559 1806 3559 1356 
Q 3559 666 3084 287 
Q 2609 -91 1734 -91 
Q 1441 -91 1130 -33 
Q 819 25 488 141 
L 488 750 
Q 750 597 1062 519 
Q 1375 441 1716 441 
Q 2309 441 2620 675 
Q 2931 909 2931 1356 
Q 2931 1769 2642 2001 
Q 2353 2234 1838 2234 
L 1294 2234 
L 1294 2753 
L 1863 2753 
Q 2328 2753 2575 2939 
Q 2822 3125 2822 3475 
Q 2822 3834 2567 4026 
Q 2313 4219 1838 4219 
Q 1578 4219 1281 4162 
Q 984 4106 628 3988 
L 628 4550 
Q 988 4650 1302 4700 
Q 1616 4750 1894 4750 
Q 2613 4750 3031 4423 
Q 3450 4097 3450 3541 
Q 3450 3153 3228 2886 
Q 3006 2619 2597 2516 
z
" transform="scale(0.015625)"/>
       </defs>
       <use xlink:href="#DejaVuSans-32"/>
       <use xlink:href="#DejaVuSans-30" x="63.623047"/>
       <use xlink:href="#DejaVuSans-32" x="127.246094"/>
       <use xlink:href="#DejaVuSans-31" x="190.869141"/>
       <use xlink:href="#DejaVuSans-2d" x="254.492188"/>
       <use xlink:href="#DejaVuSans-30" x="290.576172"/>
       <use xlink:href="#DejaVuSans-33" x="354.199219"/>
       <use xlink:href="#DejaVuSans-2d" x="417.822266"/>
       <use xlink:href="#DejaVuSans-30" x="453.90625"/>
       <use xlink:href="#DejaVuSans-31" x="517.529297"/>
      </g>
     </g>
    </g>
    <g id="text_6">
     <!-- date time -->
     <g transform="translate(529.339844 401.637752)scale(0.1 -0.1)">
      <defs>
       <path id="DejaVuSans-64" d="M 2906 2969 
L 2906 4863 
L 3481 4863 
L 3481 0 
L 2906 0 
L 2906 525 
Q 2725 213 2448 61 
Q 2172 -91 1784 -91 
Q 1150 -91 751 415 
Q 353 922 353 1747 
Q 353 2572 751 3078 
Q 1150 3584 1784 3584 
Q 2172 3584 2448 3432 
Q 2725 3281 2906 2969 
z
M 947 1747 
Q 947 1113 1208 752 
Q 1469 391 1925 391 
Q 2381 391 2643 752 
Q 2906 1113 2906 1747 
Q 2906 2381 2643 2742 
Q 2381 3103 1925 3103 
Q 1469 3103 1208 2742 
Q 947 2381 947 1747 
z
" transform="scale(0.015625)"/>
       <path id="DejaVuSans-61" d="M 2194 1759 
Q 1497 1759 1228 1600 
Q 959 1441 959 1056 
Q 959 750 1161 570 
Q 1363 391 1709 391 
Q 2188 391 2477 730 
Q 2766 1069 2766 1631 
L 2766 1759 
L 2194 1759 
z
M 3341 1997 
L 3341 0 
L 2766 0 
L 2766 531 
Q 2569 213 2275 61 
Q 1981 -91 1556 -91 
Q 1019 -91 701 211 
Q 384 513 384 1019 
Q 384 1609 779 1909 
Q 1175 2209 1959 2209 
L 2766 2209 
L 2766 2266 
Q 2766 2663 2505 2880 
Q 2244 3097 1772 3097 
Q 1472 3097 1187 3025 
Q 903 2953 641 2809 
L 641 3341 
Q 956 3463 1253 3523 
Q 1550 3584 1831 3584 
Q 2591 3584 2966 3190 
Q 3341 2797 3341 1997 
z
" transform="scale(0.015625)"/>
       <path id="DejaVuSans-74" d="M 1172 4494 
L 1172 3500 
L 2356 3500 
L 2356 3053 
L 1172 3053 
L 1172 1153 
Q 1172 725 1289 603 
Q 1406 481 1766 481 
L 2356 481 
L 2356 0 
L 1766 0 
Q 1100 0 847 248 
Q 594 497 594 1153 
L 594 3053 
L 172 3053 
L 172 3500 
L 594 3500 
L 594 4494 
L 1172 4494 
z
" transform="scale(0.015625)"/>
       <path id="DejaVuSans-65" d="M 3597 1894 
L 3597 1613 
L 953 1613 
Q 991 1019 1311 708 
Q 1631 397 2203 397 
Q 2534 397 2845 478 
Q 3156 559 3463 722 
L 3463 178 
Q 3153 47 2828 -22 
Q 2503 -91 2169 -91 
Q 1331 -91 842 396 
Q 353 884 353 1716 
Q 353 2575 817 3079 
Q 1281 3584 2069 3584 
Q 2775 3584 3186 3129 
Q 3597 2675 3597 1894 
z
M 3022 2063 
Q 3016 2534 2758 2815 
Q 2500 3097 2075 3097 
Q 1594 3097 1305 2825 
Q 1016 2553 972 2059 
L 3022 2063 
z
" transform="scale(0.015625)"/>
       <path id="DejaVuSans-20" transform="scale(0.015625)"/>
       <path id="DejaVuSans-69" d="M 603 3500 
L 1178 3500 
L 1178 0 
L 603 0 
L 603 3500 
z
M 603 4863 
L 1178 4863 
L 1178 4134 
L 603 4134 
L 603 4863 
z
" transform="scale(0.015625)"/>
       <path id="DejaVuSans-6d" d="M 3328 2828 
Q 3544 3216 3844 3400 
Q 4144 3584 4550 3584 
Q 5097 3584 5394 3201 
Q 5691 2819 5691 2113 
L 5691 0 
L 5113 0 
L 5113 2094 
Q 5113 2597 4934 2840 
Q 4756 3084 4391 3084 
Q 3944 3084 3684 2787 
Q 3425 2491 3425 1978 
L 3425 0 
L 2847 0 
L 2847 2094 
Q 2847 2600 2669 2842 
Q 2491 3084 2119 3084 
Q 1678 3084 1418 2786 
Q 1159 2488 1159 1978 
L 1159 0 
L 581 0 
L 581 3500 
L 1159 3500 
L 1159 2956 
Q 1356 3278 1631 3431 
Q 1906 3584 2284 3584 
Q 2666 3584 2933 3390 
Q 3200 3197 3328 2828 
z
" transform="scale(0.015625)"/>
      </defs>
      <use xlink:href="#DejaVuSans-64"/>
      <use xlink:href="#DejaVuSans-61" x="63.476562"/>
      <use xlink:href="#DejaVuSans-74" x="124.755859"/>
      <use xlink:href="#DejaVuSans-65" x="163.964844"/>
      <use xlink:href="#DejaVuSans-20" x="225.488281"/>
      <use xlink:href="#DejaVuSans-74" x="257.275391"/>
      <use xlink:href="#DejaVuSans-69" x="296.484375"/>
      <use xlink:href="#DejaVuSans-6d" x="324.267578"/>
      <use xlink:href="#DejaVuSans-65" x="421.679688"/>
     </g>
    </g>
   </g>
   <g id="matplotlib.axis_2">
    <g id="ytick_1">
     <g id="line2d_6">
      <defs>
       <path id="md7d8ed1973" d="M 0 0 
L -3.5 0 
" style="stroke: #000000; stroke-width: 0.8"/>
      </defs>
      <g>
       <use xlink:href="#md7d8ed1973" x="135" y="332.247273" style="stroke: #000000; stroke-width: 0.8"/>
      </g>
     </g>
     <g id="text_7">
      <!-- 0 -->
      <g transform="translate(121.6375 336.046491)scale(0.1 -0.1)">
       <use xlink:href="#DejaVuSans-30"/>
      </g>
     </g>
    </g>
    <g id="ytick_2">
     <g id="line2d_7">
      <g>
       <use xlink:href="#md7d8ed1973" x="135" y="275.062145" style="stroke: #000000; stroke-width: 0.8"/>
      </g>
     </g>
     <g id="text_8">
      <!-- 100 -->
      <g transform="translate(108.9125 278.861364)scale(0.1 -0.1)">
       <use xlink:href="#DejaVuSans-31"/>
       <use xlink:href="#DejaVuSans-30" x="63.623047"/>
       <use xlink:href="#DejaVuSans-30" x="127.246094"/>
      </g>
     </g>
    </g>
    <g id="ytick_3">
     <g id="line2d_8">
      <g>
       <use xlink:href="#md7d8ed1973" x="135" y="217.877018" style="stroke: #000000; stroke-width: 0.8"/>
      </g>
     </g>
     <g id="text_9">
      <!-- 200 -->
      <g transform="translate(108.9125 221.676236)scale(0.1 -0.1)">
       <use xlink:href="#DejaVuSans-32"/>
       <use xlink:href="#DejaVuSans-30" x="63.623047"/>
       <use xlink:href="#DejaVuSans-30" x="127.246094"/>
      </g>
     </g>
    </g>
    <g id="ytick_4">
     <g id="line2d_9">
      <g>
       <use xlink:href="#md7d8ed1973" x="135" y="160.69189" style="stroke: #000000; stroke-width: 0.8"/>
      </g>
     </g>
     <g id="text_10">
      <!-- 300 -->
      <g transform="translate(108.9125 164.491109)scale(0.1 -0.1)">
       <use xlink:href="#DejaVuSans-33"/>
       <use xlink:href="#DejaVuSans-30" x="63.623047"/>
       <use xlink:href="#DejaVuSans-30" x="127.246094"/>
      </g>
     </g>
    </g>
    <g id="ytick_5">
     <g id="line2d_10">
      <g>
       <use xlink:href="#md7d8ed1973" x="135" y="103.506763" style="stroke: #000000; stroke-width: 0.8"/>
      </g>
     </g>
     <g id="text_11">
      <!-- 400 -->
      <g transform="translate(108.9125 107.305981)scale(0.1 -0.1)">
       <defs>
        <path id="DejaVuSans-34" d="M 2419 4116 
L 825 1625 
L 2419 1625 
L 2419 4116 
z
M 2253 4666 
L 3047 4666 
L 3047 1625 
L 3713 1625 
L 3713 1100 
L 3047 1100 
L 3047 0 
L 2419 0 
L 2419 1100 
L 313 1100 
L 313 1709 
L 2253 4666 
z
" transform="scale(0.015625)"/>
       </defs>
       <use xlink:href="#DejaVuSans-34"/>
       <use xlink:href="#DejaVuSans-30" x="63.623047"/>
       <use xlink:href="#DejaVuSans-30" x="127.246094"/>
      </g>
     </g>
    </g>
    <g id="text_12">
     <!-- Bq/m^3 -->
     <g transform="translate(102.832812 219.250469)rotate(-90)scale(0.1 -0.1)">
      <defs>
       <path id="DejaVuSans-42" d="M 1259 2228 
L 1259 519 
L 2272 519 
Q 2781 519 3026 730 
Q 3272 941 3272 1375 
Q 3272 1813 3026 2020 
Q 2781 2228 2272 2228 
L 1259 2228 
z
M 1259 4147 
L 1259 2741 
L 2194 2741 
Q 2656 2741 2882 2914 
Q 3109 3088 3109 3444 
Q 3109 3797 2882 3972 
Q 2656 4147 2194 4147 
L 1259 4147 
z
M 628 4666 
L 2241 4666 
Q 2963 4666 3353 4366 
Q 3744 4066 3744 3513 
Q 3744 3084 3544 2831 
Q 3344 2578 2956 2516 
Q 3422 2416 3680 2098 
Q 3938 1781 3938 1306 
Q 3938 681 3513 340 
Q 3088 0 2303 0 
L 628 0 
L 628 4666 
z
" transform="scale(0.015625)"/>
       <path id="DejaVuSans-71" d="M 947 1747 
Q 947 1113 1208 752 
Q 1469 391 1925 391 
Q 2381 391 2643 752 
Q 2906 1113 2906 1747 
Q 2906 2381 2643 2742 
Q 2381 3103 1925 3103 
Q 1469 3103 1208 2742 
Q 947 2381 947 1747 
z
M 2906 525 
Q 2725 213 2448 61 
Q 2172 -91 1784 -91 
Q 1150 -91 751 415 
Q 353 922 353 1747 
Q 353 2572 751 3078 
Q 1150 3584 1784 3584 
Q 2172 3584 2448 3432 
Q 2725 3281 2906 2969 
L 2906 3500 
L 3481 3500 
L 3481 -1331 
L 2906 -1331 
L 2906 525 
z
" transform="scale(0.015625)"/>
       <path id="DejaVuSans-2f" d="M 1625 4666 
L 2156 4666 
L 531 -594 
L 0 -594 
L 1625 4666 
z
" transform="scale(0.015625)"/>
       <path id="DejaVuSans-5e" d="M 2988 4666 
L 4684 2925 
L 4056 2925 
L 2681 4159 
L 1306 2925 
L 678 2925 
L 2375 4666 
L 2988 4666 
z
" transform="scale(0.015625)"/>
      </defs>
      <use xlink:href="#DejaVuSans-42"/>
      <use xlink:href="#DejaVuSans-71" x="68.603516"/>
      <use xlink:href="#DejaVuSans-2f" x="132.080078"/>
      <use xlink:href="#DejaVuSans-6d" x="165.771484"/>
      <use xlink:href="#DejaVuSans-5e" x="263.183594"/>
      <use xlink:href="#DejaVuSans-33" x="346.972656"/>
     </g>
    </g>
   </g>
   <g id="line2d_11">
    <path d="M 173.045455 304.798412 
L 173.528571 307.657668 
L 174.011688 308.229519 
L 174.494805 298.508047 
L 174.977922 306.513965 
L 175.944156 298.508047 
L 176.427273 304.22656 
L 176.91039 297.364345 
L 177.393506 299.079899 
L 177.876623 287.642873 
L 178.35974 291.645832 
L 178.842857 288.786576 
L 179.325974 283.068063 
L 179.809091 323.669504 
L 180.292208 323.669504 
L 180.775325 316.807288 
L 181.258442 307.657668 
L 181.741558 311.660627 
L 182.224675 304.798412 
L 182.707792 311.660627 
L 183.190909 308.229519 
L 183.674026 299.079899 
L 184.157143 297.364345 
L 184.64026 289.930278 
L 185.123377 292.217683 
L 185.606494 289.930278 
L 186.08961 309.373222 
L 186.572727 302.511006 
L 187.055844 299.079899 
L 187.538961 276.777699 
L 188.022078 288.786576 
L 188.505195 297.364345 
L 188.988312 295.648791 
L 189.471429 304.798412 
L 189.954545 295.07694 
L 190.920779 309.373222 
L 191.403896 298.508047 
L 192.37013 320.238396 
L 192.853247 314.519883 
L 193.336364 317.37914 
L 193.819481 318.522842 
L 194.302597 304.798412 
L 194.785714 299.079899 
L 195.751948 271.631038 
L 196.235065 264.196971 
L 196.718182 253.903648 
L 197.201299 298.508047 
L 197.684416 284.211766 
L 198.167532 298.508047 
L 198.650649 279.636955 
L 199.133766 284.211766 
L 199.616883 293.933237 
L 200.1 283.068063 
L 200.583117 255.619202 
L 201.066234 255.619202 
L 201.549351 245.89773 
L 202.032468 253.903648 
L 202.515584 248.185135 
L 202.998701 276.777699 
L 203.481818 314.519883 
L 203.964935 284.211766 
L 204.448052 268.19993 
L 204.931169 260.765863 
L 205.414286 269.915484 
L 205.897403 270.487335 
L 206.380519 279.065104 
L 206.863636 275.062145 
L 207.346753 249.900689 
L 207.82987 264.196971 
L 208.312987 255.619202 
L 208.796104 249.328838 
L 209.279221 247.613284 
L 209.762338 251.044392 
L 210.245455 257.334756 
L 210.728571 253.331797 
L 211.211688 256.762904 
L 211.694805 263.053268 
L 212.177922 260.765863 
L 212.661039 224.167382 
L 213.144156 203.580736 
L 213.627273 203.008885 
L 214.11039 185.853346 
L 214.593506 269.915484 
L 215.076623 302.511006 
L 215.55974 299.079899 
L 216.042857 291.645832 
L 216.525974 289.358427 
L 217.009091 286.499171 
L 217.492208 305.942114 
L 217.975325 267.628079 
L 218.458442 260.765863 
L 218.941558 279.065104 
L 219.424675 268.19993 
L 219.907792 293.933237 
L 220.390909 292.217683 
L 220.874026 284.783617 
L 221.357143 293.361386 
L 222.323377 272.202889 
L 222.806494 283.068063 
L 223.28961 267.628079 
L 224.255844 273.918443 
L 224.738961 263.053268 
L 225.222078 263.053268 
L 225.705195 279.065104 
L 226.188312 280.208807 
L 226.671429 318.522842 
L 227.154545 309.373222 
L 227.637662 304.22656 
L 228.120779 311.088776 
L 229.087013 281.352509 
L 229.57013 273.346591 
L 230.053247 284.211766 
L 230.536364 284.211766 
L 231.019481 275.062145 
L 231.502597 296.792494 
L 231.985714 297.364345 
L 232.468831 295.07694 
L 232.951948 289.930278 
L 233.435065 296.792494 
L 233.918182 286.499171 
L 234.401299 271.631038 
L 234.884416 264.196971 
L 235.367532 264.768822 
L 235.850649 263.053268 
L 236.333766 255.619202 
L 236.816883 246.469581 
L 237.3 248.185135 
L 237.783117 251.044392 
L 238.266234 291.645832 
L 238.749351 316.807288 
L 239.232468 316.807288 
L 239.715584 315.663586 
L 240.198701 308.229519 
L 240.681818 304.798412 
L 241.164935 298.508047 
L 241.648052 306.513965 
L 242.131169 291.645832 
L 242.614286 285.927319 
L 243.097403 262.481417 
L 243.580519 259.05031 
L 244.063636 281.352509 
L 244.546753 285.927319 
L 245.512987 264.196971 
L 245.996104 275.062145 
L 246.479221 260.194012 
L 246.962338 257.334756 
L 247.445455 247.613284 
L 247.928571 258.478458 
L 248.411688 252.188094 
L 248.894805 247.613284 
L 249.377922 256.762904 
L 249.861039 311.088776 
L 250.344156 314.519883 
L 250.827273 321.95395 
L 251.31039 309.945073 
L 251.793506 309.373222 
L 252.276623 306.513965 
L 252.75974 309.373222 
L 253.242857 309.373222 
L 253.725974 300.223601 
L 254.209091 298.508047 
L 254.692208 293.361386 
L 255.175325 302.511006 
L 255.658442 291.645832 
L 256.141558 284.211766 
L 256.624675 279.636955 
L 257.107792 255.047351 
L 257.590909 273.346591 
L 258.074026 281.352509 
L 258.557143 275.062145 
L 259.04026 233.317002 
L 259.523377 264.768822 
L 260.006494 257.334756 
L 260.48961 243.610325 
L 260.972727 269.915484 
L 261.455844 313.948032 
L 261.938961 320.238396 
L 262.905195 287.642873 
L 263.388312 295.648791 
L 263.871429 293.361386 
L 264.354545 275.633996 
L 264.837662 272.202889 
L 265.320779 260.765863 
L 265.803896 264.196971 
L 266.287013 303.082858 
L 266.77013 304.22656 
L 267.253247 280.208807 
L 267.736364 289.930278 
L 268.219481 266.484376 
L 268.702597 281.352509 
L 269.185714 273.918443 
L 269.668831 263.053268 
L 270.151948 284.783617 
L 270.635065 273.346591 
L 271.118182 289.930278 
L 271.601299 271.631038 
L 272.084416 284.211766 
L 272.567532 277.34955 
L 273.050649 308.229519 
L 273.533766 319.094693 
L 274.016883 318.522842 
L 274.5 314.519883 
L 274.983117 313.948032 
L 275.466234 308.229519 
L 275.949351 292.217683 
L 276.432468 291.645832 
L 276.915584 313.948032 
L 277.398701 308.229519 
L 277.881818 311.088776 
L 278.364935 316.807288 
L 278.848052 299.079899 
L 279.331169 308.229519 
L 279.814286 284.783617 
L 280.297403 282.496212 
L 280.780519 279.636955 
L 281.263636 281.352509 
L 281.746753 271.631038 
L 282.22987 269.915484 
L 282.712987 275.633996 
L 283.196104 275.062145 
L 283.679221 269.915484 
L 284.162338 273.918443 
L 284.645455 309.945073 
L 285.128571 312.804329 
L 285.611688 322.525801 
L 286.094805 309.373222 
L 286.577922 309.945073 
L 287.061039 311.088776 
L 287.544156 309.945073 
L 288.027273 311.660627 
L 288.51039 319.094693 
L 288.993506 317.37914 
L 289.476623 309.373222 
L 289.95974 306.513965 
L 290.442857 287.642873 
L 290.925974 291.645832 
L 291.409091 282.496212 
L 291.892208 270.487335 
L 292.375325 282.496212 
L 292.858442 279.636955 
L 293.341558 260.194012 
L 293.824675 268.19993 
L 294.307792 266.484376 
L 294.790909 279.636955 
L 295.274026 275.633996 
L 295.757143 275.062145 
L 296.24026 320.238396 
L 296.723377 324.241355 
L 297.206494 313.948032 
L 297.68961 318.522842 
L 298.172727 314.519883 
L 298.655844 295.648791 
L 299.138961 291.645832 
L 299.622078 304.798412 
L 300.105195 322.525801 
L 300.588312 320.238396 
L 301.071429 311.660627 
L 301.554545 312.804329 
L 302.037662 312.804329 
L 302.520779 309.945073 
L 303.003896 288.786576 
L 303.487013 277.34955 
L 303.97013 281.352509 
L 304.453247 279.065104 
L 304.936364 269.915484 
L 305.419481 269.915484 
L 305.902597 271.631038 
L 306.385714 281.352509 
L 306.868831 279.065104 
L 307.351948 289.358427 
L 307.835065 320.810247 
L 308.318182 319.094693 
L 308.801299 319.094693 
L 309.284416 309.945073 
L 309.767532 296.792494 
L 310.250649 304.798412 
L 310.733766 293.933237 
L 311.216883 293.933237 
L 311.7 298.508047 
L 312.183117 306.513965 
L 312.666234 302.511006 
L 313.149351 286.499171 
L 313.632468 295.648791 
L 314.598701 271.631038 
L 315.081818 270.487335 
L 315.564935 273.346591 
L 316.048052 256.762904 
L 316.531169 263.053268 
L 317.014286 256.762904 
L 317.497403 268.19993 
L 317.980519 272.202889 
L 318.463636 246.469581 
L 318.946753 266.484376 
L 319.42987 266.484376 
L 319.912987 299.079899 
L 320.396104 308.229519 
L 320.879221 303.082858 
L 321.362338 320.810247 
L 321.845455 323.669504 
L 322.328571 312.804329 
L 322.811688 299.079899 
L 323.294805 298.508047 
L 323.777922 299.079899 
L 324.744156 245.89773 
L 325.227273 252.188094 
L 325.71039 229.314043 
L 326.193506 225.882936 
L 327.15974 243.610325 
L 327.642857 245.89773 
L 328.125974 243.610325 
L 328.609091 227.598489 
L 329.092208 245.89773 
L 329.575325 249.328838 
L 330.058442 244.754028 
L 330.541558 297.364345 
L 331.024675 313.948032 
L 331.507792 295.648791 
L 331.990909 300.223601 
L 332.474026 276.777699 
L 332.957143 291.645832 
L 333.44026 287.642873 
L 333.923377 273.346591 
L 334.406494 303.082858 
L 334.88961 302.511006 
L 335.372727 304.798412 
L 335.855844 302.511006 
L 336.338961 295.648791 
L 336.822078 292.217683 
L 337.305195 287.642873 
L 337.788312 296.792494 
L 338.271429 292.217683 
L 338.754545 284.783617 
L 339.237662 272.202889 
L 339.720779 285.927319 
L 340.203896 279.636955 
L 340.687013 280.208807 
L 341.17013 270.487335 
L 341.653247 282.496212 
L 342.136364 304.798412 
L 342.619481 314.519883 
L 343.102597 319.094693 
L 343.585714 304.22656 
L 344.068831 304.22656 
L 344.551948 309.945073 
L 345.035065 306.513965 
L 345.518182 299.079899 
L 346.001299 306.513965 
L 346.484416 300.223601 
L 346.967532 307.657668 
L 347.450649 291.645832 
L 347.933766 299.079899 
L 348.416883 284.783617 
L 348.9 283.068063 
L 349.383117 279.636955 
L 349.866234 284.783617 
L 350.349351 275.633996 
L 350.832468 275.633996 
L 351.315584 281.352509 
L 351.798701 289.930278 
L 352.281818 292.217683 
L 352.764935 276.777699 
L 353.248052 282.496212 
L 354.214286 314.519883 
L 354.697403 309.373222 
L 355.180519 315.663586 
L 355.663636 309.945073 
L 356.146753 298.508047 
L 356.62987 309.945073 
L 357.112987 305.942114 
L 357.596104 293.361386 
L 358.079221 316.807288 
L 359.528571 300.223601 
L 360.011688 304.22656 
L 360.494805 300.223601 
L 360.977922 293.361386 
L 361.461039 288.786576 
L 361.944156 297.364345 
L 362.427273 298.508047 
L 362.91039 293.933237 
L 363.393506 298.508047 
L 363.876623 285.927319 
L 364.35974 255.047351 
L 364.842857 276.777699 
L 365.325974 270.487335 
L 365.809091 311.660627 
L 366.292208 311.660627 
L 366.775325 308.229519 
L 367.258442 308.229519 
L 367.741558 298.508047 
L 368.707792 268.19993 
L 369.190909 266.484376 
L 369.674026 256.762904 
L 370.64026 279.065104 
L 371.123377 265.912525 
L 372.08961 255.619202 
L 372.572727 248.185135 
L 373.055844 238.463664 
L 373.538961 249.328838 
L 374.505195 245.89773 
L 374.988312 236.74811 
L 375.471429 246.469581 
L 375.954545 233.317002 
L 376.437662 246.469581 
L 376.920779 234.460705 
L 377.403896 293.361386 
L 377.887013 291.645832 
L 378.37013 273.918443 
L 378.853247 263.053268 
L 379.336364 219.592572 
L 379.819481 231.029597 
L 380.302597 259.05031 
L 380.785714 220.164423 
L 381.268831 205.29629 
L 381.751948 210.442951 
L 382.235065 218.448869 
L 382.718182 298.508047 
L 383.201299 273.346591 
L 383.684416 266.484376 
L 384.167532 268.19993 
L 384.650649 270.487335 
L 385.616883 257.334756 
L 386.1 264.768822 
L 386.583117 238.463664 
L 387.066234 240.751069 
L 387.549351 246.469581 
L 388.032468 238.463664 
L 388.515584 237.319961 
L 388.998701 231.029597 
L 389.481818 235.032556 
L 389.964935 260.765863 
L 390.448052 317.37914 
L 390.931169 319.094693 
L 391.414286 313.948032 
L 391.897403 295.648791 
L 392.380519 288.786576 
L 392.863636 284.211766 
L 393.346753 260.765863 
L 393.82987 229.314043 
L 394.796104 229.314043 
L 395.279221 216.733315 
L 395.762338 237.319961 
L 396.245455 237.319961 
L 396.728571 252.188094 
L 397.211688 240.179217 
L 397.694805 238.463664 
L 398.177922 257.334756 
L 398.661039 240.179217 
L 399.144156 244.754028 
L 399.627273 253.903648 
L 400.11039 249.900689 
L 400.593506 307.657668 
L 401.076623 327.672463 
L 401.55974 319.094693 
L 402.525974 309.945073 
L 403.009091 308.229519 
L 403.492208 304.798412 
L 403.975325 284.783617 
L 404.458442 304.798412 
L 404.941558 303.082858 
L 405.424675 282.496212 
L 405.907792 285.927319 
L 406.390909 287.642873 
L 406.874026 299.079899 
L 407.357143 289.930278 
L 407.84026 292.217683 
L 408.323377 285.927319 
L 408.806494 270.487335 
L 409.772727 298.508047 
L 410.738961 273.346591 
L 411.222078 283.068063 
L 411.705195 273.346591 
L 412.188312 279.636955 
L 412.671429 275.062145 
L 413.637662 268.19993 
L 414.120779 279.636955 
L 414.603896 295.07694 
L 415.087013 303.082858 
L 415.57013 295.07694 
L 416.053247 300.795453 
L 416.536364 293.933237 
L 417.019481 298.508047 
L 417.502597 298.508047 
L 417.985714 291.645832 
L 418.468831 304.798412 
L 418.951948 287.642873 
L 419.435065 292.217683 
L 419.918182 298.508047 
L 420.401299 298.508047 
L 420.884416 302.511006 
L 421.367532 285.927319 
L 421.850649 292.217683 
L 422.333766 279.636955 
L 422.816883 277.34955 
L 423.3 311.660627 
L 423.783117 319.094693 
L 424.266234 318.522842 
L 424.749351 311.088776 
L 425.232468 315.663586 
L 425.715584 306.513965 
L 426.198701 311.088776 
L 426.681818 304.798412 
L 427.164935 285.927319 
L 427.648052 312.804329 
L 428.131169 316.807288 
L 428.614286 308.229519 
L 429.097403 295.648791 
L 429.580519 298.508047 
L 430.063636 298.508047 
L 431.512987 284.211766 
L 431.996104 283.068063 
L 432.479221 287.642873 
L 432.962338 288.786576 
L 433.445455 284.211766 
L 433.928571 282.496212 
L 434.411688 264.768822 
L 434.894805 263.053268 
L 435.377922 240.179217 
L 435.861039 227.026638 
L 436.344156 292.217683 
L 436.827273 258.478458 
L 437.31039 263.053268 
L 437.793506 264.196971 
L 438.276623 260.765863 
L 438.75974 238.463664 
L 439.242857 264.196971 
L 439.725974 296.792494 
L 440.209091 273.918443 
L 440.692208 265.912525 
L 441.175325 263.053268 
L 441.658442 248.185135 
L 442.141558 243.610325 
L 442.624675 241.894771 
L 443.107792 252.188094 
L 443.590909 222.451828 
L 444.557143 245.89773 
L 445.04026 235.032556 
L 445.523377 231.029597 
L 446.006494 240.179217 
L 446.48961 243.610325 
L 446.972727 302.511006 
L 447.455844 313.948032 
L 447.938961 312.804329 
L 448.422078 306.513965 
L 449.871429 251.044392 
L 450.354545 299.079899 
L 450.837662 315.663586 
L 451.320779 295.648791 
L 451.803896 264.196971 
L 452.287013 255.619202 
L 452.77013 240.179217 
L 453.253247 236.74811 
L 454.219481 245.89773 
L 455.185714 232.745151 
L 455.668831 240.751069 
L 456.151948 238.463664 
L 456.635065 237.319961 
L 457.118182 225.311084 
L 457.601299 219.592572 
L 458.567532 296.792494 
L 459.050649 289.358427 
L 459.533766 269.915484 
L 460.016883 243.610325 
L 460.5 242.466623 
L 460.983117 234.460705 
L 461.466234 232.745151 
L 461.949351 240.751069 
L 462.432468 288.786576 
L 462.915584 293.933237 
L 463.398701 297.364345 
L 463.881818 307.657668 
L 464.364935 286.499171 
L 464.848052 293.361386 
L 465.331169 281.352509 
L 465.814286 276.777699 
L 466.297403 251.044392 
L 466.780519 260.765863 
L 467.263636 259.05031 
L 467.746753 260.194012 
L 468.22987 239.035515 
L 468.712987 237.319961 
L 469.196104 244.754028 
L 469.679221 253.903648 
L 470.162338 295.648791 
L 471.128571 322.525801 
L 471.611688 312.804329 
L 472.094805 317.37914 
L 472.577922 318.522842 
L 473.061039 309.945073 
L 473.544156 323.669504 
L 474.027273 317.37914 
L 474.51039 314.519883 
L 474.993506 307.657668 
L 475.476623 304.22656 
L 476.442857 273.346591 
L 476.925974 273.346591 
L 477.409091 264.196971 
L 477.892208 236.74811 
L 478.375325 249.328838 
L 478.858442 233.317002 
L 479.341558 241.894771 
L 479.824675 239.035515 
L 480.307792 233.317002 
L 480.790909 216.161464 
L 481.274026 225.311084 
L 481.757143 255.619202 
L 482.24026 269.915484 
L 482.723377 309.373222 
L 483.206494 312.804329 
L 483.68961 300.795453 
L 484.172727 298.508047 
L 484.655844 262.481417 
L 485.138961 273.918443 
L 485.622078 264.196971 
L 486.105195 247.613284 
L 486.588312 258.478458 
L 487.071429 264.196971 
L 488.037662 247.613284 
L 488.520779 246.469581 
L 489.487013 239.035515 
L 489.97013 246.469581 
L 490.453247 251.044392 
L 490.936364 234.460705 
L 491.419481 233.317002 
L 491.902597 216.161464 
L 492.385714 227.598489 
L 492.868831 223.59553 
L 493.351948 264.768822 
L 494.318182 281.352509 
L 494.801299 295.648791 
L 495.767532 269.915484 
L 496.250649 262.481417 
L 496.733766 243.610325 
L 497.216883 298.508047 
L 497.7 299.079899 
L 498.183117 263.053268 
L 498.666234 251.044392 
L 499.149351 249.900689 
L 499.632468 248.185135 
L 500.115584 259.05031 
L 500.598701 245.89773 
L 501.081818 253.331797 
L 501.564935 253.903648 
L 502.048052 263.053268 
L 502.531169 257.334756 
L 503.014286 264.196971 
L 503.497403 255.047351 
L 503.980519 243.610325 
L 504.463636 260.765863 
L 504.946753 313.948032 
L 505.42987 325.956909 
L 505.912987 319.094693 
L 506.396104 305.942114 
L 506.879221 300.795453 
L 507.362338 292.217683 
L 507.845455 275.633996 
L 509.294805 181.850387 
L 509.777922 234.460705 
L 510.261039 232.745151 
L 510.744156 233.317002 
L 511.227273 243.610325 
L 511.71039 234.460705 
L 512.193506 247.613284 
L 512.676623 209.299249 
L 513.15974 249.900689 
L 513.642857 235.032556 
L 514.125974 252.188094 
L 514.609091 240.751069 
L 515.092208 240.179217 
L 515.575325 217.877018 
L 516.541558 313.948032 
L 517.024675 318.522842 
L 517.507792 321.95395 
L 517.990909 318.522842 
L 518.474026 302.511006 
L 518.957143 298.508047 
L 519.44026 296.792494 
L 519.923377 286.499171 
L 520.406494 279.065104 
L 520.88961 280.208807 
L 521.372727 303.082858 
L 521.855844 304.798412 
L 522.338961 309.373222 
L 523.305195 289.930278 
L 523.788312 289.930278 
L 524.271429 295.648791 
L 524.754545 275.062145 
L 525.237662 284.783617 
L 525.720779 282.496212 
L 526.203896 282.496212 
L 526.687013 286.499171 
L 527.17013 256.762904 
L 527.653247 260.194012 
L 528.136364 296.792494 
L 528.619481 321.95395 
L 529.102597 322.525801 
L 529.585714 320.238396 
L 530.068831 315.663586 
L 530.551948 309.945073 
L 531.035065 309.945073 
L 531.518182 313.948032 
L 532.001299 313.948032 
L 532.484416 327.672463 
L 532.967532 321.95395 
L 533.450649 309.373222 
L 533.933766 300.795453 
L 534.416883 308.229519 
L 534.9 293.361386 
L 535.383117 284.783617 
L 535.866234 287.642873 
L 536.349351 284.211766 
L 536.832468 285.927319 
L 537.798701 273.918443 
L 538.281818 273.918443 
L 538.764935 279.636955 
L 539.248052 269.915484 
L 539.731169 315.663586 
L 540.214286 313.948032 
L 540.697403 297.364345 
L 541.180519 295.648791 
L 541.663636 317.37914 
L 542.146753 321.95395 
L 542.62987 324.241355 
L 543.112987 315.663586 
L 543.596104 311.660627 
L 544.079221 305.942114 
L 544.562338 305.942114 
L 545.045455 292.217683 
L 545.528571 293.361386 
L 546.011688 291.645832 
L 546.494805 273.346591 
L 546.977922 281.352509 
L 547.461039 275.062145 
L 547.944156 284.211766 
L 548.427273 276.777699 
L 549.393506 257.334756 
L 549.876623 252.188094 
L 550.35974 260.765863 
L 550.842857 249.328838 
L 551.325974 259.05031 
L 551.809091 309.373222 
L 552.292208 313.948032 
L 553.258442 300.223601 
L 553.741558 302.511006 
L 554.224675 293.361386 
L 554.707792 293.933237 
L 555.190909 300.795453 
L 555.674026 300.795453 
L 556.157143 284.783617 
L 556.64026 281.352509 
L 558.08961 263.053268 
L 558.572727 280.208807 
L 559.055844 281.352509 
L 559.538961 256.762904 
L 560.022078 264.196971 
L 560.505195 277.34955 
L 560.988312 246.469581 
L 561.471429 252.188094 
L 561.954545 243.610325 
L 562.920779 320.238396 
L 563.403896 329.388016 
L 563.887013 324.241355 
L 564.37013 320.810247 
L 564.853247 304.22656 
L 565.336364 302.511006 
L 565.819481 297.364345 
L 566.302597 300.795453 
L 566.785714 283.068063 
L 567.268831 272.202889 
L 567.751948 270.487335 
L 568.235065 271.631038 
L 568.718182 270.487335 
L 569.201299 264.768822 
L 569.684416 262.481417 
L 570.167532 216.161464 
L 570.650649 210.442951 
L 571.133766 216.733315 
L 571.616883 195.574818 
L 572.1 207.011843 
L 572.583117 172.700767 
L 573.066234 110.940829 
L 574.032468 65.192727 
L 574.515584 259.05031 
L 574.998701 309.373222 
L 575.481818 316.807288 
L 575.964935 315.663586 
L 576.448052 320.810247 
L 576.931169 300.795453 
L 577.414286 309.945073 
L 577.897403 297.364345 
L 578.380519 298.508047 
L 578.863636 300.795453 
L 579.346753 284.211766 
L 579.82987 277.34955 
L 580.312987 283.068063 
L 580.796104 258.478458 
L 581.279221 269.915484 
L 581.762338 270.487335 
L 582.245455 270.487335 
L 582.728571 235.032556 
L 583.694805 253.331797 
L 584.177922 231.029597 
L 584.661039 240.179217 
L 585.144156 262.481417 
L 585.627273 223.59553 
L 586.11039 313.948032 
L 586.593506 317.37914 
L 587.076623 318.522842 
L 587.55974 311.660627 
L 588.042857 311.088776 
L 589.009091 288.786576 
L 589.492208 292.217683 
L 590.458442 325.385057 
L 590.941558 329.388016 
L 591.424675 327.672463 
L 591.907792 315.663586 
L 592.390909 312.804329 
L 592.874026 305.942114 
L 593.357143 273.918443 
L 593.84026 253.331797 
L 594.323377 243.610325 
L 594.806494 238.463664 
L 595.28961 237.319961 
L 595.772727 248.185135 
L 596.255844 249.900689 
L 596.738961 243.610325 
L 597.222078 245.89773 
L 597.705195 313.948032 
L 598.188312 311.660627 
L 598.671429 311.660627 
L 599.637662 317.37914 
L 600.120779 313.948032 
L 600.603896 311.660627 
L 601.087013 297.364345 
L 601.57013 295.07694 
L 602.053247 297.364345 
L 602.536364 300.223601 
L 603.019481 282.496212 
L 603.502597 275.062145 
L 603.985714 260.194012 
L 604.468831 253.903648 
L 604.951948 258.478458 
L 605.435065 244.754028 
L 605.918182 263.053268 
L 606.401299 238.463664 
L 606.884416 243.610325 
L 607.367532 235.032556 
L 607.850649 218.448869 
L 608.333766 197.862223 
L 608.816883 296.792494 
L 609.3 309.945073 
L 609.783117 316.807288 
L 610.266234 309.373222 
L 610.749351 304.22656 
L 611.232468 306.513965 
L 611.715584 302.511006 
L 612.198701 296.792494 
L 612.681818 295.648791 
L 613.164935 300.223601 
L 613.648052 315.663586 
L 614.131169 302.511006 
L 614.614286 307.657668 
L 615.097403 309.373222 
L 615.580519 297.364345 
L 616.063636 292.217683 
L 616.546753 295.648791 
L 617.02987 304.798412 
L 617.512987 293.361386 
L 617.996104 289.358427 
L 618.479221 283.068063 
L 618.962338 288.786576 
L 619.445455 286.499171 
L 620.411688 300.223601 
L 620.894805 283.068063 
L 621.377922 298.508047 
L 621.861039 300.795453 
L 622.344156 304.798412 
L 622.827273 323.669504 
L 623.31039 329.959868 
L 623.793506 327.672463 
L 624.276623 318.522842 
L 624.75974 316.807288 
L 625.242857 314.519883 
L 625.725974 313.948032 
L 626.209091 320.810247 
L 626.692208 317.37914 
L 627.175325 300.795453 
L 627.658442 305.942114 
L 628.624675 289.930278 
L 629.107792 277.34955 
L 629.590909 275.062145 
L 630.074026 239.035515 
L 630.557143 241.894771 
L 631.04026 237.319961 
L 631.523377 212.730356 
L 632.006494 227.598489 
L 632.48961 289.358427 
L 632.972727 320.238396 
L 633.455844 318.522842 
L 633.938961 304.22656 
L 634.422078 295.07694 
L 634.905195 300.795453 
L 635.388312 292.217683 
L 635.871429 286.499171 
L 636.354545 270.487335 
L 636.837662 313.948032 
L 637.320779 311.088776 
L 637.803896 311.660627 
L 638.77013 289.358427 
L 639.253247 273.346591 
L 639.736364 264.196971 
L 640.219481 277.34955 
L 640.702597 262.481417 
L 641.185714 257.334756 
L 641.668831 249.900689 
L 642.151948 251.044392 
L 642.635065 240.751069 
L 643.118182 240.751069 
L 643.601299 260.765863 
L 644.084416 313.948032 
L 644.567532 321.95395 
L 645.050649 324.241355 
L 645.533766 331.10357 
L 646.016883 331.675421 
L 646.5 331.675421 
L 646.983117 332.247273 
L 647.949351 323.669504 
L 648.432468 320.810247 
L 649.398701 311.660627 
L 649.881818 300.223601 
L 650.364935 293.361386 
L 650.848052 284.783617 
L 651.331169 272.202889 
L 651.814286 284.211766 
L 652.297403 262.481417 
L 652.780519 269.915484 
L 653.263636 251.044392 
L 653.746753 249.328838 
L 654.22987 240.179217 
L 654.712987 255.619202 
L 655.196104 293.361386 
L 655.679221 313.948032 
L 656.162338 317.37914 
L 656.645455 319.094693 
L 657.128571 316.807288 
L 657.611688 311.660627 
L 658.094805 311.088776 
L 658.577922 299.079899 
L 659.061039 300.795453 
L 659.544156 293.361386 
L 660.027273 279.636955 
L 660.51039 281.352509 
L 660.993506 295.648791 
L 661.476623 266.484376 
L 661.95974 264.196971 
L 662.442857 255.047351 
L 662.925974 260.194012 
L 663.409091 260.765863 
L 663.892208 253.331797 
L 664.375325 251.044392 
L 664.858442 249.900689 
L 665.341558 222.451828 
L 665.824675 232.745151 
L 666.307792 237.319961 
L 666.790909 231.029597 
L 667.757143 311.660627 
L 668.24026 320.810247 
L 668.723377 314.519883 
L 669.206494 311.088776 
L 669.68961 320.238396 
L 670.172727 307.657668 
L 670.655844 302.511006 
L 671.138961 304.798412 
L 671.622078 302.511006 
L 672.105195 293.933237 
L 672.588312 291.645832 
L 673.071429 305.942114 
L 673.554545 296.792494 
L 674.037662 304.798412 
L 674.520779 296.792494 
L 675.003896 295.07694 
L 675.487013 293.933237 
L 675.97013 292.217683 
L 676.453247 289.358427 
L 676.936364 279.065104 
L 677.419481 273.346591 
L 677.902597 285.927319 
L 678.385714 267.628079 
L 678.868831 223.59553 
L 679.351948 245.89773 
L 679.835065 305.942114 
L 680.318182 309.373222 
L 680.801299 313.948032 
L 681.284416 309.945073 
L 681.767532 304.22656 
L 682.250649 300.223601 
L 682.733766 283.068063 
L 683.216883 229.314043 
L 683.7 212.158505 
L 684.183117 211.014802 
L 684.666234 184.709644 
L 685.149351 255.047351 
L 685.632468 255.047351 
L 686.115584 248.185135 
L 686.598701 232.745151 
L 687.081818 253.331797 
L 688.048052 229.885894 
L 688.531169 225.311084 
L 689.014286 234.460705 
L 689.497403 217.877018 
L 690.463636 257.334756 
L 690.946753 308.229519 
L 691.42987 320.810247 
L 691.912987 317.37914 
L 692.396104 304.798412 
L 692.879221 259.05031 
L 693.362338 273.346591 
L 693.845455 257.334756 
L 694.328571 308.229519 
L 694.811688 308.229519 
L 695.294805 315.663586 
L 695.777922 307.657668 
L 696.261039 309.373222 
L 697.71039 266.484376 
L 698.193506 271.631038 
L 698.676623 284.211766 
L 699.15974 262.481417 
L 699.642857 253.903648 
L 700.125974 284.211766 
L 700.609091 255.047351 
L 701.092208 253.331797 
L 701.575325 264.768822 
L 702.058442 304.22656 
L 703.024675 311.660627 
L 703.507792 304.22656 
L 703.990909 309.373222 
L 704.474026 308.229519 
L 704.957143 304.22656 
L 705.44026 304.22656 
L 705.923377 299.079899 
L 706.406494 308.229519 
L 706.88961 297.364345 
L 707.372727 308.229519 
L 707.855844 297.364345 
L 708.338961 297.364345 
L 708.822078 300.223601 
L 709.305195 295.648791 
L 709.788312 293.933237 
L 710.271429 291.645832 
L 710.754545 291.645832 
L 711.237662 288.786576 
L 711.720779 298.508047 
L 712.203896 293.361386 
L 712.687013 305.942114 
L 713.17013 302.511006 
L 713.653247 315.663586 
L 714.136364 321.95395 
L 714.619481 320.238396 
L 715.102597 316.807288 
L 715.585714 317.37914 
L 716.068831 314.519883 
L 716.551948 320.238396 
L 717.035065 299.079899 
L 717.518182 300.223601 
L 718.001299 295.07694 
L 718.484416 300.223601 
L 719.450649 287.642873 
L 719.933766 284.783617 
L 720.416883 289.930278 
L 720.9 287.642873 
L 721.383117 296.792494 
L 721.866234 300.223601 
L 722.349351 289.358427 
L 723.315584 300.223601 
L 723.798701 295.07694 
L 724.281818 302.511006 
L 724.764935 303.082858 
L 725.248052 297.364345 
L 725.731169 295.648791 
L 726.214286 314.519883 
L 726.697403 324.241355 
L 727.180519 321.95395 
L 727.663636 317.37914 
L 728.146753 304.798412 
L 728.62987 307.657668 
L 729.112987 309.373222 
L 729.596104 303.082858 
L 730.079221 303.082858 
L 730.562338 304.798412 
L 731.045455 287.642873 
L 731.528571 295.648791 
L 732.011688 284.211766 
L 732.494805 257.334756 
L 732.977922 277.34955 
L 733.461039 287.642873 
L 733.944156 292.217683 
L 734.427273 293.361386 
L 734.91039 284.211766 
L 735.393506 289.930278 
L 735.876623 298.508047 
L 736.35974 314.519883 
L 736.842857 315.663586 
L 737.325974 311.660627 
L 737.809091 321.95395 
L 738.292208 312.804329 
L 738.775325 316.807288 
L 739.258442 304.798412 
L 739.741558 307.657668 
L 740.224675 309.373222 
L 740.707792 303.082858 
L 741.190909 292.217683 
L 741.674026 302.511006 
L 742.157143 307.657668 
L 742.64026 309.373222 
L 743.123377 302.511006 
L 743.606494 293.361386 
L 744.08961 288.786576 
L 744.572727 286.499171 
L 745.055844 282.496212 
L 745.538961 273.918443 
L 746.022078 287.642873 
L 746.505195 284.783617 
L 746.988312 286.499171 
L 747.471429 284.211766 
L 747.954545 288.786576 
L 748.437662 298.508047 
L 748.920779 292.217683 
L 749.403896 300.795453 
L 749.887013 282.496212 
L 750.37013 295.07694 
L 750.853247 304.22656 
L 751.336364 323.669504 
L 751.819481 325.956909 
L 752.785714 319.094693 
L 753.268831 313.948032 
L 753.751948 311.088776 
L 754.235065 313.948032 
L 754.718182 309.945073 
L 755.201299 314.519883 
L 756.167532 299.079899 
L 756.650649 306.513965 
L 757.133766 296.792494 
L 757.616883 298.508047 
L 758.1 292.217683 
L 758.583117 291.645832 
L 759.066234 295.07694 
L 759.549351 293.933237 
L 760.032468 295.07694 
L 760.515584 296.792494 
L 760.998701 291.645832 
L 761.481818 289.358427 
L 761.964935 286.499171 
L 762.448052 300.795453 
L 762.931169 304.798412 
L 763.414286 296.792494 
L 763.897403 293.361386 
L 764.863636 308.229519 
L 766.312987 282.496212 
L 766.796104 283.068063 
L 767.279221 284.211766 
L 767.762338 284.211766 
L 768.245455 268.19993 
L 768.728571 256.762904 
L 769.211688 271.631038 
L 769.694805 270.487335 
L 770.177922 266.484376 
L 770.661039 279.636955 
L 771.144156 313.948032 
L 771.627273 317.37914 
L 772.11039 313.948032 
L 772.593506 304.22656 
L 773.076623 312.804329 
L 773.55974 309.373222 
L 774.525974 300.223601 
L 775.009091 291.645832 
L 775.492208 293.361386 
L 775.975325 282.496212 
L 776.458442 280.208807 
L 776.941558 268.19993 
L 777.424675 277.34955 
L 777.907792 267.628079 
L 778.390909 268.19993 
L 778.874026 251.044392 
L 779.357143 259.05031 
L 779.84026 257.334756 
L 780.323377 253.903648 
L 780.806494 253.903648 
L 781.28961 262.481417 
L 781.772727 245.89773 
L 782.255844 247.613284 
L 783.222078 277.34955 
L 783.705195 316.807288 
L 784.188312 303.082858 
L 784.671429 309.373222 
L 785.154545 312.804329 
L 785.637662 300.223601 
L 786.120779 306.513965 
L 786.603896 305.942114 
L 787.087013 305.942114 
L 787.57013 300.795453 
L 788.053247 309.945073 
L 788.536364 287.642873 
L 789.019481 286.499171 
L 789.502597 289.358427 
L 789.985714 264.196971 
L 790.468831 249.900689 
L 790.951948 253.903648 
L 791.435065 247.613284 
L 791.918182 232.745151 
L 792.401299 253.903648 
L 792.884416 231.029597 
L 793.367532 231.029597 
L 793.850649 239.035515 
L 794.333766 251.044392 
L 794.816883 222.451828 
L 795.3 227.598489 
L 795.783117 214.44591 
L 796.266234 216.733315 
L 796.749351 238.463664 
L 797.232468 241.894771 
L 797.715584 305.942114 
L 798.198701 321.95395 
L 798.681818 320.810247 
L 799.164935 312.804329 
L 799.648052 309.373222 
L 800.131169 311.088776 
L 801.097403 293.933237 
L 801.580519 279.065104 
L 802.063636 273.918443 
L 802.546753 289.930278 
L 803.02987 285.927319 
L 803.512987 284.211766 
L 803.996104 279.065104 
L 804.479221 277.34955 
L 804.962338 263.053268 
L 805.445455 263.053268 
L 805.928571 276.777699 
L 806.411688 284.783617 
L 806.894805 285.927319 
L 807.377922 306.513965 
L 807.861039 321.95395 
L 808.344156 325.385057 
L 808.827273 325.956909 
L 809.31039 320.238396 
L 809.793506 329.959868 
L 810.276623 327.672463 
L 810.75974 325.956909 
L 811.242857 322.525801 
L 811.725974 316.807288 
L 812.209091 305.942114 
L 812.692208 305.942114 
L 813.175325 295.07694 
L 813.658442 302.511006 
L 814.141558 305.942114 
L 814.624675 296.792494 
L 815.107792 292.217683 
L 815.590909 292.217683 
L 816.074026 284.783617 
L 816.557143 279.636955 
L 817.04026 281.352509 
L 817.523377 282.496212 
L 818.006494 313.948032 
L 818.48961 319.094693 
L 818.972727 318.522842 
L 819.455844 320.238396 
L 819.938961 311.088776 
L 820.422078 309.945073 
L 820.905195 305.942114 
L 821.388312 299.079899 
L 822.354545 291.645832 
L 822.837662 284.211766 
L 823.320779 299.079899 
L 823.803896 286.499171 
L 824.287013 295.648791 
L 824.77013 295.07694 
L 825.736364 269.915484 
L 826.219481 279.065104 
L 826.702597 271.631038 
L 827.185714 255.619202 
L 827.668831 252.188094 
L 828.151948 239.035515 
L 828.635065 248.185135 
L 829.118182 248.185135 
L 829.601299 264.768822 
L 830.084416 311.660627 
L 830.567532 323.669504 
L 831.050649 329.959868 
L 831.533766 325.956909 
L 832.016883 324.241355 
L 832.5 319.094693 
L 832.983117 306.513965 
L 833.466234 323.669504 
L 833.949351 303.082858 
L 834.432468 295.648791 
L 834.915584 303.082858 
L 835.398701 289.930278 
L 835.881818 293.361386 
L 836.364935 292.217683 
L 836.848052 279.065104 
L 837.331169 275.062145 
L 837.814286 264.196971 
L 838.297403 266.484376 
L 838.780519 264.768822 
L 839.263636 271.631038 
L 839.746753 249.328838 
L 840.22987 252.188094 
L 840.712987 245.89773 
L 841.196104 251.044392 
L 841.679221 238.463664 
L 842.162338 253.903648 
L 842.645455 311.088776 
L 843.128571 324.241355 
L 843.611688 320.810247 
L 844.094805 308.229519 
L 844.577922 311.088776 
L 845.061039 307.657668 
L 845.544156 291.645832 
L 846.027273 280.208807 
L 846.51039 299.079899 
L 847.476623 281.352509 
L 847.95974 283.068063 
L 848.442857 251.044392 
L 848.925974 242.466623 
L 849.409091 253.331797 
L 849.892208 255.047351 
L 850.375325 242.466623 
L 850.858442 240.751069 
L 851.341558 246.469581 
L 851.824675 249.900689 
L 852.307792 225.882936 
L 853.274026 251.044392 
L 853.757143 236.74811 
L 854.24026 237.319961 
L 854.723377 257.334756 
L 855.206494 302.511006 
L 855.68961 311.660627 
L 856.172727 304.22656 
L 856.655844 300.223601 
L 857.138961 287.642873 
L 857.622078 293.361386 
L 858.105195 289.358427 
L 858.588312 289.930278 
L 859.071429 297.364345 
L 859.554545 288.786576 
L 860.037662 292.217683 
L 860.520779 298.508047 
L 861.003896 296.792494 
L 861.487013 299.079899 
L 861.97013 289.358427 
L 862.453247 288.786576 
L 862.936364 283.068063 
L 863.902597 325.385057 
L 864.868831 305.942114 
L 865.351948 309.945073 
L 865.835065 304.798412 
L 866.318182 315.663586 
L 866.801299 306.513965 
L 867.284416 316.807288 
L 867.767532 313.948032 
L 868.250649 319.094693 
L 868.733766 320.810247 
L 869.216883 315.663586 
L 869.7 300.223601 
L 870.183117 302.511006 
L 870.666234 296.792494 
L 871.149351 304.798412 
L 871.632468 288.786576 
L 872.115584 293.933237 
L 872.598701 281.352509 
L 873.081818 279.065104 
L 873.564935 266.484376 
L 874.048052 273.918443 
L 874.531169 268.19993 
L 875.014286 266.484376 
L 875.497403 287.642873 
L 875.980519 320.238396 
L 876.463636 303.082858 
L 876.946753 305.942114 
L 877.42987 306.513965 
L 877.912987 277.34955 
L 878.396104 276.777699 
L 878.879221 270.487335 
L 879.362338 273.346591 
L 879.845455 277.34955 
L 880.328571 284.783617 
L 880.811688 276.777699 
L 881.294805 295.648791 
L 881.777922 289.358427 
L 882.261039 280.208807 
L 882.744156 287.642873 
L 883.227273 284.211766 
L 883.71039 276.777699 
L 884.193506 267.628079 
L 884.676623 269.915484 
L 885.15974 276.777699 
L 885.642857 276.777699 
L 886.125974 279.636955 
L 886.609091 255.047351 
L 887.092208 270.487335 
L 887.575325 312.804329 
L 888.058442 322.525801 
L 888.541558 325.385057 
L 889.024675 313.948032 
L 889.507792 309.945073 
L 889.990909 315.663586 
L 890.474026 324.241355 
L 890.957143 323.669504 
L 891.44026 316.807288 
L 891.923377 321.95395 
L 892.406494 321.95395 
L 892.88961 313.948032 
L 893.372727 298.508047 
L 893.855844 295.648791 
L 894.338961 286.499171 
L 894.822078 291.645832 
L 895.305195 307.657668 
L 895.788312 302.511006 
L 896.271429 311.088776 
L 896.754545 314.519883 
L 897.237662 314.519883 
L 897.720779 320.810247 
L 898.203896 322.525801 
L 898.687013 325.385057 
L 899.17013 332.247273 
L 899.653247 324.241355 
L 900.136364 332.247273 
L 900.619481 331.10357 
L 901.102597 324.241355 
L 901.585714 331.10357 
L 902.068831 332.247273 
L 902.551948 325.385057 
L 903.035065 325.956909 
L 904.001299 329.388016 
L 904.484416 325.956909 
L 904.967532 327.672463 
L 905.450649 323.669504 
L 905.933766 324.241355 
L 906.416883 322.525801 
L 906.9 324.241355 
L 907.383117 327.672463 
L 907.866234 329.388016 
L 908.349351 327.672463 
L 909.315584 327.672463 
L 909.798701 322.525801 
L 910.281818 321.95395 
L 910.764935 327.672463 
L 911.248052 329.959868 
L 911.731169 331.10357 
L 912.697403 331.10357 
L 913.180519 329.388016 
L 913.663636 329.959868 
L 914.146753 325.956909 
L 914.62987 317.37914 
L 915.112987 318.522842 
L 915.596104 320.238396 
L 916.079221 311.088776 
L 916.562338 327.672463 
L 917.045455 331.10357 
L 917.528571 329.959868 
L 918.011688 329.959868 
L 918.494805 327.672463 
L 918.977922 332.247273 
L 919.944156 327.672463 
L 920.427273 327.672463 
L 920.91039 325.956909 
L 921.393506 327.672463 
L 921.876623 325.956909 
L 922.842857 318.522842 
L 923.325974 304.22656 
L 923.809091 306.513965 
L 924.775325 299.079899 
L 925.258442 296.792494 
L 925.741558 304.22656 
L 926.224675 297.364345 
L 926.707792 304.798412 
L 927.190909 304.798412 
L 927.674026 289.358427 
L 928.64026 315.663586 
L 929.123377 317.37914 
L 929.606494 317.37914 
L 930.08961 319.094693 
L 930.572727 321.95395 
L 931.055844 320.238396 
L 931.538961 320.810247 
L 932.022078 327.672463 
L 932.505195 327.672463 
L 932.988312 315.663586 
L 933.471429 291.645832 
L 933.954545 317.37914 
L 933.954545 317.37914 
" clip-path="url(#pbf7b7bdaa7)" style="fill: none; stroke: #1f77b4; stroke-width: 1.5; stroke-linecap: square"/>
   </g>
   <g id="LineCollection_1">
    <path d="M 173.045455 275.062145 
L 933.954545 275.062145 
" clip-path="url(#pbf7b7bdaa7)" style="fill: none; stroke-dasharray: 1.5,2.475; stroke-dashoffset: 0; stroke: #ff0000; stroke-width: 1.5"/>
   </g>
   <g id="patch_3">
    <path d="M 135 345.6 
L 135 51.84 
" style="fill: none; stroke: #000000; stroke-width: 0.8; stroke-linejoin: miter; stroke-linecap: square"/>
   </g>
   <g id="patch_4">
    <path d="M 972 345.6 
L 972 51.84 
" style="fill: none; stroke: #000000; stroke-width: 0.8; stroke-linejoin: miter; stroke-linecap: square"/>
   </g>
   <g id="patch_5">
    <path d="M 135 345.6 
L 972 345.6 
" style="fill: none; stroke: #000000; stroke-width: 0.8; stroke-linejoin: miter; stroke-linecap: square"/>
   </g>
   <g id="patch_6">
    <path d="M 135 51.84 
L 972 51.84 
" style="fill: none; stroke: #000000; stroke-width: 0.8; stroke-linejoin: miter; stroke-linecap: square"/>
   </g>
   <g id="text_13">
    <!-- Radon levels over time - one measurement per hour -->
    <g transform="translate(396.024375 45.84)scale(0.12 -0.12)">
     <defs>
      <path id="DejaVuSans-52" d="M 2841 2188 
Q 3044 2119 3236 1894 
Q 3428 1669 3622 1275 
L 4263 0 
L 3584 0 
L 2988 1197 
Q 2756 1666 2539 1819 
Q 2322 1972 1947 1972 
L 1259 1972 
L 1259 0 
L 628 0 
L 628 4666 
L 2053 4666 
Q 2853 4666 3247 4331 
Q 3641 3997 3641 3322 
Q 3641 2881 3436 2590 
Q 3231 2300 2841 2188 
z
M 1259 4147 
L 1259 2491 
L 2053 2491 
Q 2509 2491 2742 2702 
Q 2975 2913 2975 3322 
Q 2975 3731 2742 3939 
Q 2509 4147 2053 4147 
L 1259 4147 
z
" transform="scale(0.015625)"/>
      <path id="DejaVuSans-6f" d="M 1959 3097 
Q 1497 3097 1228 2736 
Q 959 2375 959 1747 
Q 959 1119 1226 758 
Q 1494 397 1959 397 
Q 2419 397 2687 759 
Q 2956 1122 2956 1747 
Q 2956 2369 2687 2733 
Q 2419 3097 1959 3097 
z
M 1959 3584 
Q 2709 3584 3137 3096 
Q 3566 2609 3566 1747 
Q 3566 888 3137 398 
Q 2709 -91 1959 -91 
Q 1206 -91 779 398 
Q 353 888 353 1747 
Q 353 2609 779 3096 
Q 1206 3584 1959 3584 
z
" transform="scale(0.015625)"/>
      <path id="DejaVuSans-6e" d="M 3513 2113 
L 3513 0 
L 2938 0 
L 2938 2094 
Q 2938 2591 2744 2837 
Q 2550 3084 2163 3084 
Q 1697 3084 1428 2787 
Q 1159 2491 1159 1978 
L 1159 0 
L 581 0 
L 581 3500 
L 1159 3500 
L 1159 2956 
Q 1366 3272 1645 3428 
Q 1925 3584 2291 3584 
Q 2894 3584 3203 3211 
Q 3513 2838 3513 2113 
z
" transform="scale(0.015625)"/>
      <path id="DejaVuSans-6c" d="M 603 4863 
L 1178 4863 
L 1178 0 
L 603 0 
L 603 4863 
z
" transform="scale(0.015625)"/>
      <path id="DejaVuSans-76" d="M 191 3500 
L 800 3500 
L 1894 563 
L 2988 3500 
L 3597 3500 
L 2284 0 
L 1503 0 
L 191 3500 
z
" transform="scale(0.015625)"/>
      <path id="DejaVuSans-73" d="M 2834 3397 
L 2834 2853 
Q 2591 2978 2328 3040 
Q 2066 3103 1784 3103 
Q 1356 3103 1142 2972 
Q 928 2841 928 2578 
Q 928 2378 1081 2264 
Q 1234 2150 1697 2047 
L 1894 2003 
Q 2506 1872 2764 1633 
Q 3022 1394 3022 966 
Q 3022 478 2636 193 
Q 2250 -91 1575 -91 
Q 1294 -91 989 -36 
Q 684 19 347 128 
L 347 722 
Q 666 556 975 473 
Q 1284 391 1588 391 
Q 1994 391 2212 530 
Q 2431 669 2431 922 
Q 2431 1156 2273 1281 
Q 2116 1406 1581 1522 
L 1381 1569 
Q 847 1681 609 1914 
Q 372 2147 372 2553 
Q 372 3047 722 3315 
Q 1072 3584 1716 3584 
Q 2034 3584 2315 3537 
Q 2597 3491 2834 3397 
z
" transform="scale(0.015625)"/>
      <path id="DejaVuSans-72" d="M 2631 2963 
Q 2534 3019 2420 3045 
Q 2306 3072 2169 3072 
Q 1681 3072 1420 2755 
Q 1159 2438 1159 1844 
L 1159 0 
L 581 0 
L 581 3500 
L 1159 3500 
L 1159 2956 
Q 1341 3275 1631 3429 
Q 1922 3584 2338 3584 
Q 2397 3584 2469 3576 
Q 2541 3569 2628 3553 
L 2631 2963 
z
" transform="scale(0.015625)"/>
      <path id="DejaVuSans-75" d="M 544 1381 
L 544 3500 
L 1119 3500 
L 1119 1403 
Q 1119 906 1312 657 
Q 1506 409 1894 409 
Q 2359 409 2629 706 
Q 2900 1003 2900 1516 
L 2900 3500 
L 3475 3500 
L 3475 0 
L 2900 0 
L 2900 538 
Q 2691 219 2414 64 
Q 2138 -91 1772 -91 
Q 1169 -91 856 284 
Q 544 659 544 1381 
z
M 1991 3584 
L 1991 3584 
z
" transform="scale(0.015625)"/>
      <path id="DejaVuSans-70" d="M 1159 525 
L 1159 -1331 
L 581 -1331 
L 581 3500 
L 1159 3500 
L 1159 2969 
Q 1341 3281 1617 3432 
Q 1894 3584 2278 3584 
Q 2916 3584 3314 3078 
Q 3713 2572 3713 1747 
Q 3713 922 3314 415 
Q 2916 -91 2278 -91 
Q 1894 -91 1617 61 
Q 1341 213 1159 525 
z
M 3116 1747 
Q 3116 2381 2855 2742 
Q 2594 3103 2138 3103 
Q 1681 3103 1420 2742 
Q 1159 2381 1159 1747 
Q 1159 1113 1420 752 
Q 1681 391 2138 391 
Q 2594 391 2855 752 
Q 3116 1113 3116 1747 
z
" transform="scale(0.015625)"/>
      <path id="DejaVuSans-68" d="M 3513 2113 
L 3513 0 
L 2938 0 
L 2938 2094 
Q 2938 2591 2744 2837 
Q 2550 3084 2163 3084 
Q 1697 3084 1428 2787 
Q 1159 2491 1159 1978 
L 1159 0 
L 581 0 
L 581 4863 
L 1159 4863 
L 1159 2956 
Q 1366 3272 1645 3428 
Q 1925 3584 2291 3584 
Q 2894 3584 3203 3211 
Q 3513 2838 3513 2113 
z
" transform="scale(0.015625)"/>
     </defs>
     <use xlink:href="#DejaVuSans-52"/>
     <use xlink:href="#DejaVuSans-61" x="67.232422"/>
     <use xlink:href="#DejaVuSans-64" x="128.511719"/>
     <use xlink:href="#DejaVuSans-6f" x="191.988281"/>
     <use xlink:href="#DejaVuSans-6e" x="253.169922"/>
     <use xlink:href="#DejaVuSans-20" x="316.548828"/>
     <use xlink:href="#DejaVuSans-6c" x="348.335938"/>
     <use xlink:href="#DejaVuSans-65" x="376.119141"/>
     <use xlink:href="#DejaVuSans-76" x="437.642578"/>
     <use xlink:href="#DejaVuSans-65" x="496.822266"/>
     <use xlink:href="#DejaVuSans-6c" x="558.345703"/>
     <use xlink:href="#DejaVuSans-73" x="586.128906"/>
     <use xlink:href="#DejaVuSans-20" x="638.228516"/>
     <use xlink:href="#DejaVuSans-6f" x="670.015625"/>
     <use xlink:href="#DejaVuSans-76" x="731.197266"/>
     <use xlink:href="#DejaVuSans-65" x="790.376953"/>
     <use xlink:href="#DejaVuSans-72" x="851.900391"/>
     <use xlink:href="#DejaVuSans-20" x="893.013672"/>
     <use xlink:href="#DejaVuSans-74" x="924.800781"/>
     <use xlink:href="#DejaVuSans-69" x="964.009766"/>
     <use xlink:href="#DejaVuSans-6d" x="991.792969"/>
     <use xlink:href="#DejaVuSans-65" x="1089.205078"/>
     <use xlink:href="#DejaVuSans-20" x="1150.728516"/>
     <use xlink:href="#DejaVuSans-2d" x="1182.515625"/>
     <use xlink:href="#DejaVuSans-20" x="1218.599609"/>
     <use xlink:href="#DejaVuSans-6f" x="1250.386719"/>
     <use xlink:href="#DejaVuSans-6e" x="1311.568359"/>
     <use xlink:href="#DejaVuSans-65" x="1374.947266"/>
     <use xlink:href="#DejaVuSans-20" x="1436.470703"/>
     <use xlink:href="#DejaVuSans-6d" x="1468.257812"/>
     <use xlink:href="#DejaVuSans-65" x="1565.669922"/>
     <use xlink:href="#DejaVuSans-61" x="1627.193359"/>
     <use xlink:href="#DejaVuSans-73" x="1688.472656"/>
     <use xlink:href="#DejaVuSans-75" x="1740.572266"/>
     <use xlink:href="#DejaVuSans-72" x="1803.951172"/>
     <use xlink:href="#DejaVuSans-65" x="1842.814453"/>
     <use xlink:href="#DejaVuSans-6d" x="1904.337891"/>
     <use xlink:href="#DejaVuSans-65" x="2001.75"/>
     <use xlink:href="#DejaVuSans-6e" x="2063.273438"/>
     <use xlink:href="#DejaVuSans-74" x="2126.652344"/>
     <use xlink:href="#DejaVuSans-20" x="2165.861328"/>
     <use xlink:href="#DejaVuSans-70" x="2197.648438"/>
     <use xlink:href="#DejaVuSans-65" x="2261.125"/>
     <use xlink:href="#DejaVuSans-72" x="2322.648438"/>
     <use xlink:href="#DejaVuSans-20" x="2363.761719"/>
     <use xlink:href="#DejaVuSans-68" x="2395.548828"/>
     <use xlink:href="#DejaVuSans-6f" x="2458.927734"/>
     <use xlink:href="#DejaVuSans-75" x="2520.109375"/>
     <use xlink:href="#DejaVuSans-72" x="2583.488281"/>
    </g>
   </g>
   <g id="legend_1">
    <g id="patch_7">
     <path d="M 841.378125 74.518125 
L 965 74.518125 
Q 967 74.518125 967 72.518125 
L 967 58.84 
Q 967 56.84 965 56.84 
L 841.378125 56.84 
Q 839.378125 56.84 839.378125 58.84 
L 839.378125 72.518125 
Q 839.378125 74.518125 841.378125 74.518125 
z
" style="fill: #ffffff; opacity: 0.8; stroke: #cccccc; stroke-linejoin: miter"/>
    </g>
    <g id="line2d_12">
     <path d="M 843.378125 64.938438 
L 853.378125 64.938438 
L 863.378125 64.938438 
" style="fill: none; stroke: #1f77b4; stroke-width: 1.5; stroke-linecap: square"/>
    </g>
    <g id="text_14">
     <!-- FTLab Radon Data -->
     <g transform="translate(871.378125 68.438438)scale(0.1 -0.1)">
      <defs>
       <path id="DejaVuSans-46" d="M 628 4666 
L 3309 4666 
L 3309 4134 
L 1259 4134 
L 1259 2759 
L 3109 2759 
L 3109 2228 
L 1259 2228 
L 1259 0 
L 628 0 
L 628 4666 
z
" transform="scale(0.015625)"/>
       <path id="DejaVuSans-54" d="M -19 4666 
L 3928 4666 
L 3928 4134 
L 2272 4134 
L 2272 0 
L 1638 0 
L 1638 4134 
L -19 4134 
L -19 4666 
z
" transform="scale(0.015625)"/>
       <path id="DejaVuSans-4c" d="M 628 4666 
L 1259 4666 
L 1259 531 
L 3531 531 
L 3531 0 
L 628 0 
L 628 4666 
z
" transform="scale(0.015625)"/>
       <path id="DejaVuSans-62" d="M 3116 1747 
Q 3116 2381 2855 2742 
Q 2594 3103 2138 3103 
Q 1681 3103 1420 2742 
Q 1159 2381 1159 1747 
Q 1159 1113 1420 752 
Q 1681 391 2138 391 
Q 2594 391 2855 752 
Q 3116 1113 3116 1747 
z
M 1159 2969 
Q 1341 3281 1617 3432 
Q 1894 3584 2278 3584 
Q 2916 3584 3314 3078 
Q 3713 2572 3713 1747 
Q 3713 922 3314 415 
Q 2916 -91 2278 -91 
Q 1894 -91 1617 61 
Q 1341 213 1159 525 
L 1159 0 
L 581 0 
L 581 4863 
L 1159 4863 
L 1159 2969 
z
" transform="scale(0.015625)"/>
       <path id="DejaVuSans-44" d="M 1259 4147 
L 1259 519 
L 2022 519 
Q 2988 519 3436 956 
Q 3884 1394 3884 2338 
Q 3884 3275 3436 3711 
Q 2988 4147 2022 4147 
L 1259 4147 
z
M 628 4666 
L 1925 4666 
Q 3281 4666 3915 4102 
Q 4550 3538 4550 2338 
Q 4550 1131 3912 565 
Q 3275 0 1925 0 
L 628 0 
L 628 4666 
z
" transform="scale(0.015625)"/>
      </defs>
      <use xlink:href="#DejaVuSans-46"/>
      <use xlink:href="#DejaVuSans-54" x="55.769531"/>
      <use xlink:href="#DejaVuSans-4c" x="116.853516"/>
      <use xlink:href="#DejaVuSans-61" x="172.566406"/>
      <use xlink:href="#DejaVuSans-62" x="233.845703"/>
      <use xlink:href="#DejaVuSans-20" x="297.322266"/>
      <use xlink:href="#DejaVuSans-52" x="329.109375"/>
      <use xlink:href="#DejaVuSans-61" x="396.341797"/>
      <use xlink:href="#DejaVuSans-64" x="457.621094"/>
      <use xlink:href="#DejaVuSans-6f" x="521.097656"/>
      <use xlink:href="#DejaVuSans-6e" x="582.279297"/>
      <use xlink:href="#DejaVuSans-20" x="645.658203"/>
      <use xlink:href="#DejaVuSans-44" x="677.445312"/>
      <use xlink:href="#DejaVuSans-61" x="754.447266"/>
      <use xlink:href="#DejaVuSans-74" x="815.726562"/>
      <use xlink:href="#DejaVuSans-61" x="854.935547"/>
     </g>
    </g>
   </g>
  </g>
 </g>
 <defs>
  <clipPath id="pbf7b7bdaa7">
   <rect x="135" y="51.84" width="837" height="293.76"/>
  </clipPath>
 </defs>
</svg>
